<svg width="25" height="24" viewBox="0 0 25 24" fill="none" xmlns="http://www.w3.org/2000/svg">
<path id="icon-pedido" d="M12.3383 1.56188C12.1583 1.48977 11.9575 1.48977 11.7776 1.56188L2.78237 5.15966L6.40577 6.60812L15.6813 2.8988L12.3383 1.56188ZM17.7101 3.71121L8.43452 7.42053L12.0579 8.86898L21.3335 5.15966L17.7101 3.71121ZM22.6086 6.27351L12.8115 10.1923V22.1327L22.6086 18.2139V6.27502V6.27351ZM11.3043 22.1342V10.1908L1.50724 6.27351V18.2154L11.3043 22.1342ZM11.2184 0.161652C11.7573 -0.0538841 12.3585 -0.0538841 12.8975 0.161652L23.6426 4.4603C23.7823 4.51629 23.902 4.61283 23.9864 4.73747C24.0707 4.86211 24.1158 5.00916 24.1159 5.15966V18.2154C24.1157 18.5166 24.0252 18.8108 23.8563 19.0601C23.6873 19.3094 23.4475 19.5024 23.1678 19.6141L12.3383 23.9459C12.1583 24.018 11.9575 24.018 11.7776 23.9459L0.949562 19.6141C0.669594 19.5026 0.429477 19.3097 0.260213 19.0604C0.0909495 18.8111 0.000310988 18.5167 0 18.2154L0 5.15966C3.50282e-05 5.00916 0.0451324 4.86211 0.129483 4.73747C0.213833 4.61283 0.333572 4.51629 0.473274 4.4603L11.2184 0.161652Z" fill="white"/>
</svg>