<svg width="64" height="56" viewBox="0 0 64 56" fill="none" xmlns="http://www.w3.org/2000/svg">
<path id="icon-ventas" d="M60.7545 39.7005H19.4157L21.4913 35.4729L55.9785 35.4104C57.1447 35.4104 58.1443 34.5774 58.3526 33.4251L63.1286 6.69195C63.2535 5.99083 63.0661 5.26887 62.6079 4.72047C62.3815 4.45057 62.0991 4.23316 61.7802 4.08332C61.4613 3.93348 61.1137 3.8548 60.7614 3.85273L16.8888 3.70695L16.514 1.94372C16.278 0.81914 15.2645 0 14.1121 0H3.38692C2.73702 0 2.11373 0.258174 1.65418 0.717728C1.19462 1.17728 0.936447 1.80057 0.936447 2.45048C0.936447 3.10038 1.19462 3.72367 1.65418 4.18323C2.11373 4.64278 2.73702 4.90095 3.38692 4.90095H12.1267L13.765 12.6897L17.7982 32.2172L12.6057 40.6932C12.3361 41.0571 12.1736 41.4893 12.1368 41.9408C12.1 42.3922 12.1903 42.845 12.3975 43.2478C12.814 44.0739 13.6539 44.5945 14.5841 44.5945H18.9436C18.0142 45.8289 17.5123 47.3325 17.5136 48.8776C17.5136 52.8067 20.7069 56 24.636 56C28.5651 56 31.7583 52.8067 31.7583 48.8776C31.7583 47.3296 31.2446 45.8232 30.3283 44.5945H41.5116C40.5822 45.8289 40.0802 47.3325 40.0816 48.8776C40.0816 52.8067 43.2749 56 47.204 56C51.133 56 54.3263 52.8067 54.3263 48.8776C54.3263 47.3296 53.8126 45.8232 52.8963 44.5945H60.7614C62.1081 44.5945 63.2119 43.4977 63.2119 42.144C63.2079 41.4948 62.9472 40.8735 62.4868 40.4158C62.0265 39.958 61.4037 39.7009 60.7545 39.7005ZM17.9093 8.53849L57.8805 8.67038L53.9653 30.5928L22.5673 30.6483L17.9093 8.53849ZM24.636 51.0713C23.4281 51.0713 22.4423 50.0855 22.4423 48.8776C22.4423 47.6698 23.4281 46.684 24.636 46.684C25.8438 46.684 26.8296 47.6698 26.8296 48.8776C26.8296 49.4594 26.5985 50.0174 26.1871 50.4288C25.7757 50.8402 25.2177 51.0713 24.636 51.0713ZM47.204 51.0713C45.9961 51.0713 45.0103 50.0855 45.0103 48.8776C45.0103 47.6698 45.9961 46.684 47.204 46.684C48.4118 46.684 49.3976 47.6698 49.3976 48.8776C49.3976 49.4594 49.1665 50.0174 48.7551 50.4288C48.3437 50.8402 47.7857 51.0713 47.204 51.0713Z" fill="#A9C6DE"/>
</svg>
