<svg width="73" height="72" viewBox="0 0 73 72" fill="none" xmlns="http://www.w3.org/2000/svg">
<path d="M14.1925 5.9652C15.9328 3.11865 20.2657 3.4267 21.5599 6.4913L31.6899 30.4559C32.8581 33.2185 30.6297 36.215 27.5691 35.997L3.8325 34.3027C0.771914 34.0826 -0.984425 30.804 0.585879 28.2355L14.1925 5.9652Z" fill="white"/>
<path fill-rule="evenodd" clip-rule="evenodd" d="M56.0106 32.0062C60.2549 32.0062 64.3253 30.3201 67.3265 27.319C70.3276 24.3178 72.0137 20.2474 72.0137 16.0031C72.0137 11.7588 70.3276 7.68836 67.3265 4.6872C64.3253 1.68603 60.2549 0 56.0106 0C51.7663 0 47.6959 1.68603 44.6947 4.6872C41.6935 7.68836 40.0075 11.7588 40.0075 16.0031C40.0075 20.2474 41.6935 24.3178 44.6947 27.319C47.6959 30.3201 51.7663 32.0062 56.0106 32.0062ZM62.1798 19.4738C62.4372 19.5365 62.7044 19.5475 62.9661 19.5061C63.2278 19.4647 63.4786 19.3718 63.704 19.2327C63.9295 19.0935 64.1251 18.911 64.2794 18.6957C64.4337 18.4804 64.5438 18.2366 64.6031 17.9784C64.6625 17.7202 64.6699 17.4528 64.6251 17.1917C64.5803 16.9307 64.484 16.6811 64.3419 16.4575C64.1999 16.2339 64.0148 16.0407 63.7975 15.8892C63.5802 15.7378 63.3349 15.6309 63.076 15.575L49.8414 12.5344C49.3322 12.4353 48.8043 12.538 48.3693 12.8207C47.9343 13.1034 47.6262 13.544 47.5099 14.0496C47.3936 14.5552 47.4783 15.0862 47.7461 15.5306C48.0139 15.9749 48.4439 16.2978 48.9452 16.4312L62.1798 19.4738Z" fill="white"/>
<path fill-rule="evenodd" clip-rule="evenodd" d="M50.3275 42.6002L28.5713 52.7462C27.6085 53.1836 26.742 53.8075 26.0218 54.5818C25.3016 55.3561 24.742 56.2655 24.3754 57.2574C24.0088 58.2493 23.8425 59.304 23.886 60.3606C23.9295 61.4172 24.1821 62.4547 24.629 63.4131C25.0759 64.3715 25.7084 65.2318 26.4899 65.9442C27.2713 66.6567 28.1863 67.2072 29.1818 67.5639C30.1773 67.9205 31.2336 68.0764 32.2897 68.0223C33.3458 67.9683 34.3807 67.7054 35.3346 67.249L57.0908 57.105C58.9926 56.195 60.4584 54.5711 61.1696 52.5863C61.8807 50.6015 61.7798 48.4163 60.8887 46.5055C59.9976 44.5947 58.3884 43.1128 56.4108 42.3819C54.4332 41.651 52.247 41.7302 50.3275 42.6022V42.6002ZM26.881 49.1195C23.9959 50.4647 21.7634 52.9008 20.6745 55.892C19.5857 58.8833 19.7297 62.1845 21.0748 65.0696C22.42 67.9546 24.8562 70.1871 27.8474 71.276C30.8386 72.3649 34.1399 72.2209 37.0249 70.8757L58.7811 60.7297C61.6662 59.3846 63.8987 56.9484 64.9875 53.9572C66.0764 50.966 65.9324 47.6647 64.5872 44.7797C63.2421 41.8946 60.8059 39.6621 57.8147 38.5732C54.8235 37.4844 51.5222 37.6284 48.6372 38.9735L26.881 49.1195Z" fill="white"/>
<path d="M21.0758 65.0706C20.4096 63.6421 20.0312 62.0963 19.9624 60.5215C19.8935 58.9468 20.1356 57.3739 20.6746 55.8927C21.2137 54.4115 22.0392 53.051 23.1041 51.8888C24.169 50.7267 25.4524 49.7856 26.881 49.1195L39.4414 43.2644L49.5853 65.0206L37.0249 70.8757C34.1401 72.2207 30.8392 72.3646 27.8482 71.276C24.8572 70.1873 22.4212 67.9552 21.0758 65.0706Z" fill="white"/>
<path fill-rule="evenodd" clip-rule="evenodd" d="M50.3275 42.6002L28.5713 52.7462C27.6085 53.1836 26.742 53.8075 26.0218 54.5818C25.3016 55.3561 24.742 56.2655 24.3754 57.2574C24.0088 58.2493 23.8425 59.304 23.886 60.3606C23.9295 61.4172 24.1821 62.4547 24.629 63.4131C25.0759 64.3715 25.7084 65.2318 26.4899 65.9442C27.2713 66.6567 28.1863 67.2072 29.1818 67.5639C30.1773 67.9205 31.2336 68.0764 32.2897 68.0223C33.3458 67.9683 34.3807 67.7054 35.3346 67.249L57.0908 57.105C58.9926 56.195 60.4584 54.5711 61.1696 52.5863C61.8807 50.6015 61.7798 48.4163 60.8887 46.5055C59.9976 44.5947 58.3884 43.1128 56.4108 42.3819C54.4332 41.651 52.247 41.7302 50.3275 42.6022V42.6002ZM26.881 49.1195C23.9959 50.4647 21.7634 52.9008 20.6745 55.892C19.5857 58.8833 19.7297 62.1845 21.0748 65.0696C22.42 67.9546 24.8562 70.1871 27.8474 71.276C30.8386 72.3649 34.1399 72.2209 37.0249 70.8757L58.7811 60.7297C61.6662 59.3846 63.8987 56.9484 64.9875 53.9572C66.0764 50.966 65.9324 47.6647 64.5872 44.7797C63.2421 41.8946 60.8059 39.6621 57.8147 38.5732C54.8235 37.4844 51.5222 37.6284 48.6372 38.9735L26.881 49.1195Z" fill="white"/>
<path fill-rule="evenodd" clip-rule="evenodd" d="M37.507 48.5814L28.5713 52.7442C26.6478 53.6411 25.1594 55.2653 24.4335 57.2596C23.7076 59.2538 23.8037 61.4548 24.7005 63.3783C25.5974 65.3017 27.2216 66.7901 29.2159 67.516C31.2102 68.2419 33.4111 68.1459 35.3346 67.249L44.2683 63.0842L37.507 48.5814ZM39.4414 43.2644L49.5853 65.0206L37.0249 70.8757C35.5964 71.5418 34.0506 71.9199 32.476 71.9886C30.9013 72.0573 29.3285 71.8152 27.8474 71.276C26.3663 70.7369 25.0059 69.9113 23.8438 68.8464C22.6818 67.7815 21.7409 66.4981 21.0748 65.0696C20.4088 63.6411 20.0306 62.0953 19.9619 60.5206C19.8932 58.9459 20.1354 57.3732 20.6745 55.8921C21.7634 52.9008 23.9959 50.4647 26.881 49.1195L39.4414 43.2644Z" fill="white"/>
</svg>
