<svg width="25" height="24" viewBox="0 0 25 24" fill="none" xmlns="http://www.w3.org/2000/svg">
<path id="icon-cash" d="M22.772 12.1688L22.7719 12.1688L22.7791 12.1618C23.0867 11.8623 23.2605 11.4455 23.2605 11.0068V2.4006C23.2605 1.49448 22.516 0.75 21.6099 0.75H13.0037C12.5639 0.75 12.1433 0.924842 11.8417 1.2265L1.243 11.8252C0.585213 12.4829 0.590101 13.5204 1.231 14.1613L9.83715 22.7675C10.4805 23.4108 11.53 23.4108 12.1733 22.7675L22.772 12.1688ZM21.1596 5.40135C21.1596 6.81181 20.0196 7.9518 18.6091 7.9518C17.1987 7.9518 16.0587 6.81181 16.0587 5.40135C16.0587 3.99089 17.1987 2.8509 18.6091 2.8509C20.0196 2.8509 21.1596 3.99089 21.1596 5.40135Z" stroke="white" stroke-width="1.5"/>
</svg>
