<svg width="78" height="62" viewBox="0 0 78 62" fill="none" xmlns="http://www.w3.org/2000/svg">
<path id="Vector" d="M5.91592 43.7273L72.0977 43.7273C73.5035 43.7273 74.6432 42.5877 74.6432 41.1818V5.54548C74.6432 4.13966 73.5035 3.00003 72.0977 3.00003L5.91592 3.00003C4.51011 3.00003 3.37047 4.13966 3.37047 5.54548V41.1818C3.37047 42.5877 4.51011 43.7273 5.91592 43.7273Z" stroke="#A9C6DE" stroke-width="5.11364" stroke-linejoin="round"/>
<path id="Vector_2" d="M8.4614 51.3636H69.5523" stroke="#A9C6DE" stroke-width="5.11364" stroke-linecap="round" stroke-linejoin="round"/>
<path id="Vector_3" d="M13.5523 59H64.4614" stroke="#A9C6DE" stroke-width="5.11364" stroke-linecap="round" stroke-linejoin="round"/>
<path id="Vector_4" d="M39.0068 36.0909C46.0359 36.0909 51.7341 30.3927 51.7341 23.3636C51.7341 16.3345 46.0359 10.6364 39.0068 10.6364C31.9778 10.6364 26.2796 16.3345 26.2796 23.3636C26.2796 30.3927 31.9778 36.0909 39.0068 36.0909Z" stroke="#A9C6DE" stroke-width="5.11364" stroke-linecap="round" stroke-linejoin="round"/>
<path id="Vector_5" d="M74.6432 15.7273C71.2677 15.7273 68.0305 14.3864 65.6437 11.9995C63.2569 9.61271 61.916 6.37548 61.916 3" stroke="#A9C6DE" stroke-width="5.11364" stroke-linecap="round" stroke-linejoin="round"/>
<path id="Vector_6" d="M3.37048 15.7273C5.04185 15.7273 6.69686 15.3981 8.241 14.7585C9.78514 14.1189 11.1882 13.1814 12.37 11.9995C13.5519 10.8177 14.4893 9.41466 15.1289 7.87052C15.7686 6.32637 16.0978 4.67137 16.0978 3" stroke="#A9C6DE" stroke-width="5.11364" stroke-linecap="round" stroke-linejoin="round"/>
<path id="Vector_7" d="M74.6432 31C71.2677 31 68.0305 32.3409 65.6437 34.7277C63.2569 37.1146 61.916 40.3518 61.916 43.7273" stroke="#A9C6DE" stroke-width="5.11364" stroke-linecap="round" stroke-linejoin="round"/>
<path id="Vector_8" d="M3.37048 31C5.04185 31 6.69686 31.3292 8.241 31.9688C9.78514 32.6084 11.1882 33.5459 12.37 34.7277C13.5519 35.9096 14.4893 37.3126 15.1289 38.8568C15.7686 40.4009 16.0978 42.0559 16.0978 43.7273" stroke="#A9C6DE" stroke-width="5.11364" stroke-linecap="round" stroke-linejoin="round"/>
</svg>
