<svg width="26" height="24" viewBox="0 0 26 24" fill="none" xmlns="http://www.w3.org/2000/svg">
<path id="Vector" d="M16 21.3333C15.6464 21.3333 15.3073 21.4738 15.0572 21.7239C14.8072 21.9739 14.6667 22.313 14.6667 22.6667C14.6667 23.0203 14.8072 23.3594 15.0572 23.6095C15.3073 23.8595 15.6464 24 16 24H22.6667C23.3739 24 24.0522 23.719 24.5523 23.219C25.0524 22.7189 25.3334 22.0406 25.3334 21.3333V2.66667C25.3334 1.95942 25.0524 1.28115 24.5523 0.781048C24.0522 0.280951 23.3739 0 22.6667 0H16C15.6464 0 15.3073 0.140476 15.0572 0.390524C14.8072 0.640573 14.6667 0.979711 14.6667 1.33333C14.6667 1.68696 14.8072 2.02609 15.0572 2.27614C15.3073 2.52619 15.6464 2.66667 16 2.66667H22.6667V21.3333H16Z" fill="white"/>
<path id="Vector_2" d="M18.2853 12.9333C18.5292 12.6854 18.6661 12.3518 18.6667 12.004V11.996C18.666 11.6437 18.5255 11.3061 18.276 11.0573L12.9427 5.72401C12.8197 5.59666 12.6725 5.49508 12.5099 5.4252C12.3472 5.35533 12.1722 5.31854 11.9952 5.31701C11.8182 5.31547 11.6426 5.3492 11.4787 5.41624C11.3149 5.48329 11.166 5.58229 11.0408 5.70748C10.9156 5.83267 10.8166 5.98154 10.7496 6.1454C10.6825 6.30926 10.6488 6.48484 10.6503 6.66188C10.6519 6.83891 10.6887 7.01387 10.7585 7.17655C10.8284 7.33922 10.93 7.48634 11.0573 7.60934L14.1147 10.6667H1.33333C0.979711 10.6667 0.640573 10.8071 0.390524 11.0572C0.140476 11.3072 0 11.6464 0 12C0 12.3536 0.140476 12.6928 0.390524 12.9428C0.640573 13.1929 0.979711 13.3333 1.33333 13.3333H14.1147L11.0573 16.3907C10.93 16.5137 10.8284 16.6608 10.7585 16.8235C10.6887 16.9861 10.6519 17.1611 10.6503 17.3381C10.6488 17.5152 10.6825 17.6907 10.7496 17.8546C10.8166 18.0185 10.9156 18.1673 11.0408 18.2925C11.166 18.4177 11.3149 18.5167 11.4787 18.5838C11.6426 18.6508 11.8182 18.6845 11.9952 18.683C12.1722 18.6815 12.3472 18.6447 12.5099 18.5748C12.6725 18.5049 12.8197 18.4034 12.9427 18.276L18.276 12.9427L18.2853 12.9333Z" fill="white"/>
</svg>
