<svg width="11" height="18" viewBox="0 0 11 18" fill="none" xmlns="http://www.w3.org/2000/svg">
<path d="M10.3362 0.473565C10.4857 0.622703 10.6042 0.799851 10.6851 0.994868C10.766 1.18989 10.8076 1.39894 10.8076 1.61007C10.8076 1.8212 10.766 2.03026 10.6851 2.22528C10.6042 2.42029 10.4857 2.59744 10.3362 2.74658L4.08139 9.0014L10.3362 15.2562C10.6376 15.5576 10.807 15.9665 10.807 16.3927C10.807 16.819 10.6376 17.2278 10.3362 17.5292C10.0348 17.8307 9.62597 18 9.1997 18C8.77343 18 8.36461 17.8307 8.06319 17.5292L0.6638 10.1299C0.514356 9.98071 0.395792 9.80357 0.314896 9.60855C0.234 9.41353 0.192362 9.20447 0.192362 8.99334C0.192362 8.78221 0.234 8.57316 0.314896 8.37814C0.395792 8.18312 0.514356 8.00597 0.6638 7.85684L8.06319 0.457444C8.67578 -0.155142 9.7075 -0.155142 10.3362 0.473565Z" fill="#666666"/>
</svg>
