<svg width="57" height="56" viewBox="0 0 57 56" fill="none" xmlns="http://www.w3.org/2000/svg">
<path id="icon-pedido" d="M29.1622 3.64439C28.7423 3.47612 28.2738 3.47612 27.8539 3.64439L6.86508 12.0392L15.3197 15.419L36.9627 6.76387L29.1622 3.64439ZM41.6964 8.65948L20.0534 17.3146L28.5081 20.6943L50.151 12.0392L41.6964 8.65948ZM53.1263 14.6382L30.2665 23.7821V51.643L53.1263 42.499V14.6417V14.6382ZM26.7496 51.6465V23.7786L3.88978 14.6382V42.5026L26.7496 51.6465ZM26.5491 0.377189C27.8067 -0.12573 29.2094 -0.12573 30.467 0.377189L55.5389 10.4074C55.8649 10.538 56.1443 10.7633 56.3411 11.0541C56.5379 11.3449 56.6431 11.688 56.6432 12.0392V42.5026C56.6428 43.2053 56.4318 43.8918 56.0375 44.4735C55.6432 45.0553 55.0837 45.5055 54.4311 45.7662L29.1622 55.8738C28.7423 56.0421 28.2738 56.0421 27.8539 55.8738L2.58853 45.7662C1.93527 45.5061 1.375 45.0561 0.980051 44.4743C0.585102 43.8925 0.373612 43.2057 0.372887 42.5026L0.372887 12.0392C0.372968 11.688 0.478196 11.3449 0.675013 11.0541C0.87183 10.7633 1.15122 10.538 1.47719 10.4074L26.5491 0.377189Z" fill="#A9C6DE"/>
</svg>
