<svg width="11" height="18" viewBox="0 0 11 18" fill="none" xmlns="http://www.w3.org/2000/svg">
<path d="M0.663792 0.473565C0.514348 0.622703 0.395784 0.799851 0.314888 0.994868C0.233992 1.18989 0.192352 1.39894 0.192352 1.61007C0.192352 1.8212 0.233992 2.03026 0.314888 2.22528C0.395784 2.42029 0.514348 2.59744 0.663792 2.74658L6.91861 9.0014L0.663792 15.2562C0.362372 15.5576 0.193035 15.9665 0.193035 16.3927C0.193035 16.819 0.362372 17.2278 0.663792 17.5292C0.965213 17.8307 1.37403 18 1.8003 18C2.22657 18 2.63539 17.8307 2.93681 17.5292L10.3362 10.1299C10.4856 9.98071 10.6042 9.80357 10.6851 9.60855C10.766 9.41353 10.8076 9.20447 10.8076 8.99334C10.8076 8.78221 10.766 8.57316 10.6851 8.37814C10.6042 8.18312 10.4856 8.00597 10.3362 7.85684L2.93681 0.457444C2.32422 -0.155142 1.2925 -0.155142 0.663792 0.473565Z" fill="#666666"/>
</svg>
