<svg width="24" height="24" viewBox="0 0 24 24" fill="none" xmlns="http://www.w3.org/2000/svg">
<path id="icon-inicio" d="M22.7313 12.3535V12.3536V21.6295C22.7313 21.9926 22.5869 22.3411 22.3295 22.5982C22.0721 22.8553 21.7227 23 21.3582 23H2.37313C2.0086 23 1.65922 22.8553 1.40179 22.5982C1.1444 22.3411 1 21.9926 1 21.6295V12.3536V12.3535C0.999946 11.8444 1.10393 11.3407 1.30563 10.8731C1.50732 10.4055 1.8025 9.98391 2.17312 9.63414L2.17323 9.63403L10.9218 1.37513L10.9219 1.375C11.1768 1.13429 11.5145 1 11.8657 1C12.2169 1 12.5545 1.13429 12.8094 1.375L12.8095 1.37513L21.5581 9.63403L21.5582 9.63414C21.9288 9.98391 22.224 10.4055 22.4257 10.8731C22.6274 11.3407 22.7314 11.8444 22.7313 12.3535Z" stroke="#004D61" stroke-width="2" stroke-linecap="round" stroke-linejoin="round"/>
</svg>
