<svg width="87" height="56" viewBox="0 0 87 56" fill="none" xmlns="http://www.w3.org/2000/svg">
<path id="Vector" d="M40.4503 39.1113C44.2675 36.5757 47.167 32.8785 48.7196 28.567C50.2723 24.2554 50.3956 19.5585 49.0712 15.1714C47.7469 10.7843 45.0454 6.94009 41.3665 4.20772C37.6875 1.47535 33.2267 0 28.644 0C24.0614 0 19.6005 1.47535 15.9216 4.20772C12.2427 6.94009 9.54113 10.7843 8.21682 15.1714C6.89252 19.5585 7.0158 24.2554 8.56843 28.567C10.1211 32.8785 13.0205 36.5757 16.8378 39.1113C10.3306 41.5117 4.70663 45.8328 0.711154 51.5021C0.493178 51.8074 0.337753 52.1529 0.253827 52.5186C0.169901 52.8843 0.159131 53.2629 0.222137 53.6328C0.285144 54.0026 0.420683 54.3564 0.620951 54.6736C0.821219 54.9909 1.08226 55.2654 1.38905 55.4814C1.69584 55.6973 2.04231 55.8505 2.40853 55.932C2.77475 56.0135 3.15348 56.0218 3.52291 55.9564C3.89234 55.891 4.24519 55.7531 4.56113 55.5508C4.87707 55.3484 5.14987 55.0856 5.36382 54.7774C7.98943 51.0422 11.4753 47.9936 15.527 45.8891C19.5787 43.7845 24.0773 42.6858 28.643 42.6857C33.2086 42.6855 37.7073 43.784 41.7591 45.8883C45.811 47.9926 49.297 51.041 51.9228 54.776C52.1377 55.0819 52.4109 55.3425 52.7265 55.5428C53.0422 55.7431 53.3943 55.8793 53.7627 55.9434C54.131 56.0076 54.5084 55.9985 54.8732 55.9167C55.238 55.8349 55.5832 55.682 55.8889 55.4668C56.1946 55.2515 56.4548 54.9781 56.6548 54.6622C56.8548 54.3462 56.9905 53.994 57.0542 53.6256C57.118 53.2572 57.1085 52.8798 57.0262 52.5151C56.944 52.1503 56.7907 51.8054 56.5751 51.4999C52.5798 45.8317 46.9565 41.5112 40.4503 39.111V39.1113ZM12.9963 21.3485C12.9963 18.2537 13.914 15.2284 15.6334 12.6552C17.3528 10.0819 19.7966 8.07634 22.6558 6.89201C25.515 5.70768 28.6612 5.39781 31.6965 6.00157C34.7319 6.60534 37.52 8.09562 39.7084 10.284C41.8967 12.4723 43.387 15.2605 43.9908 18.2958C44.5945 21.3311 44.2847 24.4773 43.1003 27.3366C41.916 30.1958 39.9104 32.6396 37.3372 34.359C34.764 36.0783 31.7387 36.9961 28.6439 36.9961C24.4953 36.9914 20.518 35.3413 17.5845 32.4078C14.6511 29.4743 13.001 25.497 12.9963 21.3485ZM84.8784 55.4645C84.5729 55.6796 84.2281 55.8325 83.8635 55.9143C83.499 55.9962 83.1219 56.0054 82.7538 55.9415C82.3857 55.8776 82.0337 55.7418 81.7181 55.5419C81.4025 55.342 81.1293 55.0818 80.9142 54.7763C78.2853 51.0447 74.7988 47.9988 70.7478 45.8949C66.6969 43.791 62.2 42.6905 57.6353 42.6861C56.8807 42.6861 56.1571 42.3863 55.6235 41.8528C55.09 41.3193 54.7902 40.5956 54.7902 39.8411C54.7902 39.0865 55.09 38.3629 55.6235 37.8293C56.1571 37.2958 56.8807 36.9961 57.6353 36.9961C59.8697 36.9935 62.0778 36.5125 64.1108 35.5853C66.1438 34.6581 67.9546 33.3062 69.4215 31.6206C70.8884 29.9351 71.9772 27.9549 72.6148 25.8133C73.2524 23.6717 73.4239 21.4184 73.1178 19.205C72.8117 16.9916 72.0351 14.8694 70.8402 12.9812C69.6454 11.093 68.06 9.48266 66.1907 8.25843C64.3215 7.0342 62.2117 6.22452 60.0034 5.88384C57.795 5.54317 55.5393 5.67942 53.388 6.28342C52.6627 6.48459 51.8872 6.3901 51.2313 6.02067C50.5755 5.65123 50.0928 5.03695 49.889 4.31236C49.6851 3.58777 49.7767 2.81192 50.1437 2.15474C50.5108 1.49755 51.1232 1.01259 51.8471 0.80606C56.7412 -0.574771 61.9676 -0.162017 66.5843 1.96993C71.201 4.10188 74.9044 7.81279 77.0269 12.4338C79.1494 17.0549 79.5515 22.2821 78.1607 27.1734C76.7699 32.0647 73.6777 36.2984 69.4414 39.1113C75.9477 41.5114 81.5712 45.8319 85.5665 51.5003C86.001 52.1172 86.1725 52.8815 86.0435 53.6249C85.9144 54.3683 85.4953 55.03 84.8784 55.4645Z" fill="#A9C6DE"/>
</svg>
