<svg width="19" height="16" viewBox="0 0 19 16" fill="none" xmlns="http://www.w3.org/2000/svg">
<path id="Subtract" fill-rule="evenodd" clip-rule="evenodd" d="M1.75453 1.12215C1.88109 0.954967 2.00727 0.77932 2.11206 0.626207C2.94463 1.29742 4.83997 2.4611 5.79641 1.77245C4.91829 1.72456 3.02811 1.30312 2.49126 0.00057892C2.49212 0.000195897 2.49291 0 2.49361 0C2.51001 0 3.39043 0.15858 4.45017 0.352308C6.79276 0.780709 8.16461 1.09949 9.50836 1.52769C11.463 2.15043 12.2363 2.60158 13.6834 3.96348C14.0754 4.33245 14.8125 4.91333 15.3212 5.25447C17.3406 6.60844 18.7643 7.93427 18.8556 8.54604C18.9031 8.86381 18.8715 8.94294 18.6245 9.12519C18.4435 9.25868 18.2393 9.59037 18.0694 10.027C17.6763 11.0367 17.641 11.0845 16.5436 12.0911C15.5708 12.9832 15.262 13.204 14.778 13.3529C14.567 13.4178 14.5489 13.3914 14.5489 13.0209C14.5489 12.7143 14.6214 12.5411 14.8532 12.2935C15.0205 12.1148 15.2102 11.7928 15.2748 11.5777C15.3766 11.2388 15.3621 11.113 15.1658 10.6306C14.5625 9.14754 12.7608 8.02194 10.9996 8.02773C10.1593 8.03047 9.59043 8.27144 9.19106 8.79371C8.92324 9.14389 8.89737 9.25025 8.89737 9.99997C8.89737 10.7281 8.93668 10.9018 9.24023 11.5177C9.64938 12.3474 10.6569 13.419 11.303 13.7115C11.7938 13.9337 12.5095 13.9814 12.6875 13.8039C12.7716 13.7199 12.8308 13.7931 12.9129 14.0832C13.0211 14.4645 13.0132 14.4859 12.6562 14.7898C12.2891 15.1022 11.3562 15.6098 10.6794 15.8653C10.4748 15.9425 9.91089 15.9999 9.35561 16C8.5034 16.0002 8.32764 15.968 7.87908 15.7299C7.08837 15.3101 6.47811 14.5751 6.34858 13.8865L6.27984 13.521L6.97656 13.4908C7.50944 13.4676 7.68041 13.4234 7.70342 13.3027C7.76992 12.9545 6.51049 11.9014 5.27652 11.2733C4.82969 11.0459 4.36351 10.6129 3.71282 9.82057C3.59127 9.67263 3.46929 9.53992 3.37749 9.45274C2.69001 6.36929 4.95236 4.62207 6.23096 4.11976C2.57313 4.57699 2.62149 8.13429 3.10866 9.88588C3.05556 9.95437 2.92268 9.95568 2.59035 9.95568C2.10014 9.95568 1.95901 10.0087 1.3579 10.4193C0.984598 10.6743 0.66587 10.8686 0.649783 10.8511C0.633591 10.8335 0.494796 10.3392 0.341338 9.7525C0.107539 8.85893 0.0549948 8.41377 0.01752 7.00961C-0.0236185 5.47095 -0.00651107 5.25315 0.225659 4.3549C0.529826 3.17799 1.08205 2.01044 1.75453 1.12215ZM12.1038 3.75827C12.3564 3.9203 12.7465 4.24234 12.9706 4.47396L13.3779 4.89505L12.9718 4.72834C12.3673 4.48026 11.6977 4.02535 11.2395 3.55154L10.8321 3.13045L11.2382 3.29716C11.4616 3.38879 11.851 3.59634 12.1038 3.75827Z" fill="white"/>
</svg>
